<?xml version="1.0" encoding="UTF-8"?>
<svg id="Ebene_1" xmlns="http://www.w3.org/2000/svg" xmlns:xlink="http://www.w3.org/1999/xlink" version="1.1" viewBox="0 0 2000 2000">
  <!-- Generator: Adobe Illustrator 29.4.0, SVG Export Plug-In . SVG Version: 2.1.0 Build 152)  -->
  <defs>
    <style>
      .st0 {
        fill: none;
      }

      .st1 {
        clip-path: url(#clippath-1);
      }

      .st2 {
        clip-path: url(#clippath-3);
      }

      .st3 {
        clip-path: url(#clippath-2);
      }

      .st4 {
        clip-path: url(#clippath);
      }
    </style>
    <clipPath id="clippath">
      <rect class="st0" width="2000" height="2000"/>
    </clipPath>
    <clipPath id="clippath-1">
      <rect class="st0" width="2000" height="2000"/>
    </clipPath>
    <clipPath id="clippath-2">
      <rect class="st0" width="2000" height="2000"/>
    </clipPath>
    <clipPath id="clippath-3">
      <rect class="st0" width="2000" height="2000"/>
    </clipPath>
  </defs>
  <g>
    <g class="st4">
      <polygon points="221.6 407.7 181.6 407.7 181.6 150.4 439 150.4 439 190.4 221.6 190.4 221.6 407.7"/>
    </g>
    <g class="st1">
      <polygon points="1880.9 407.7 1840.9 407.7 1840.9 190.4 1623.5 190.4 1623.5 150.4 1880.9 150.4 1880.9 407.7"/>
    </g>
    <g class="st3">
      <polygon points="439 1849.6 181.6 1849.6 181.6 1592.3 221.6 1592.3 221.6 1809.6 439 1809.6 439 1849.6"/>
    </g>
    <g class="st2">
      <polygon points="1880.9 1849.6 1623.5 1849.6 1623.5 1809.6 1840.9 1809.6 1840.9 1592.3 1880.9 1592.3 1880.9 1849.6"/>
    </g>
  </g>
  <g>
    <path d="M471.7,863.5c3.7,25.3,15.3,39.2,39.2,39.2s23.6-6.9,23.6-21.3-9.8-22.5-45.2-34.8c-40.9-14.4-61.9-34.3-61.9-68.5s30-67.7,75.5-67.7,74.3,23,80.6,66l-51.3,10.7c-2-27.1-12.7-41.2-31.7-41.2s-22.8,9.2-22.8,23,10.7,23.3,42.9,33.7c47.8,15.3,68,33.1,68,70s-30.2,68.5-80.9,68.5-82.9-23.9-89-70.8l53-6.6Z"/>
    <path d="M673.5,937.8h-53.3v-224.6h53.3v224.6Z"/>
    <path d="M794.8,713.2c62.2,0,101.1,34.3,101.1,109.7s-42.6,114.9-104,114.9h-72.3v-224.6h75.2ZM794.8,900.4c28.5,0,48.1-20.2,48.1-74.9s-19.6-74.9-53.6-74.9h-17.9v149.8h23.3Z"/>
    <path d="M1068.1,898.9v38.9h-137.7v-224.6h135.1v38.9h-83.2v53.3h74.9v37.4h-74.9v56.2h85.8Z"/>
    <path d="M1207.2,822c28.2,2,54.1,14.7,54.1,50.1s-34,65.7-82.1,65.7h-79.5v-224.6h74.9c45.8,0,76.3,16.4,76.3,57.6s-17.3,43.8-43.8,49.8v1.4ZM1150.2,750.6v55.9h19c16.4,0,30-8.4,30-28.2s-13-27.6-30-27.6h-19ZM1178.1,898.9c19.3,0,32-7.2,32-27.9s-12.7-27.1-31.7-27.1h-28.2v55h27.9Z"/>
    <path d="M1469.8,937.8h-53.3l-13-52.7h-68.8l-12.7,52.7h-49.2l57.3-224.6h82.1l57.6,224.6ZM1376.5,773.7c-2.6-10.1-4.9-20.4-6.3-30.8h-1.4c-1.7,10.4-4,20.7-6.6,30.8l-17.6,71.1h49.2l-17.3-71.1Z"/>
    <path d="M1602.9,937.8l-33.7-82.1h-21.6v82.1h-51.8v-224.6h75.7c46.4,0,79.2,21,79.2,66s-13.8,50.7-36,60.2l48.4,98.5h-60.2ZM1547.6,817.4h18.4c20.4,0,32.8-8.9,32.8-32.8s-12.4-34-32.8-34h-18.4v66.8Z"/>
    <path d="M707.1,1100.5h-60.5v182.9h-51.8v-182.9h-60.5v-41.8h172.8v41.8Z"/>
    <path d="M917.3,1058.8v224.6h-53.3v-93.6h-74.9v93.6h-53.3v-224.6h53.3v89.3h74.9v-89.3h53.3Z"/>
    <path d="M1101.1,1244.5v38.9h-137.7v-224.6h135.1v38.9h-83.2v53.3h74.9v37.4h-74.9v56.2h85.8Z"/>
    <path d="M1356.5,1058.8v224.6h-47.5v-87.8c0-30.8.6-61.3,3.2-92.2h-2.9l-42.9,180h-42.3l-43.8-180h-2.9c2.3,30.5,2.9,60.8,2.9,92.2v87.8h-47.5v-224.6h78.9l21.6,88.7c5.8,23,10.7,54.7,12.1,76.6h2.9c1.2-21.9,5.8-54.1,10.9-76.3l21-89h76.3Z"/>
    <path d="M1540.3,1244.5v38.9h-137.7v-224.6h135.1v38.9h-83.2v53.3h74.9v37.4h-74.9v56.2h85.8Z"/>
  </g>
</svg>